<svg width="2504" height="2504" xmlns="http://www.w3.org/2000/svg" xml:space="preserve" enable-background="new 0 0 2504 2504" version="1.1">

 <g>
  <title>Layer 1</title>
  <path id="svg_4" d="m1600.24683,2247.55371c-17.53431,3.49121 -34.94959,7.83545 -52.6272,10.29614c-36.7522,5.11499 -73.60913,9.54517 -110.49866,13.56397c-10.81567,1.17822 -21.88574,0.02148 -33.52673,-0.79199c0.72803,-1.33106 2.09595,-2.27588 3.56689,-2.48072c6.90186,-0.96142 14.03418,-0.94677 20.71363,-2.69604c19.22338,-5.03443 38.56665,-9.89112 57.31457,-16.39722c30.44763,-10.56616 59.51209,-24.49414 87.26441,-40.87622c40.93811,-24.16577 77.84277,-53.23071 108.66992,-89.8418c16.15197,-19.18213 30.47717,-39.48877 42.28503,-61.48657c19.29578,-35.948 32.86707,-73.82214 39.2887,-114.40796c3.39209,-21.43945 5.5155,-42.78027 5.45227,-64.40063c-0.0332,-11.32373 0.22326,-22.69751 -0.73267,-33.95691c-1.17627,-13.85181 -3.77429,-27.57703 -5.22937,-41.41248c-2.26868,-21.57092 -8.37585,-42.24096 -14.37512,-62.91345c-4.15527,-14.31872 -9.0293,-28.44507 -14.05261,-42.48901c-2.58972,-7.24048 -4.17664,-15.15601 -10.80908,-22.08789c-1.21692,3.1632 -2.40052,5.09106 -2.66565,7.13794c-0.89429,6.90283 -1.61451,13.83667 -2.12818,20.7788c-1.82019,24.59522 -7.22863,48.59595 -13.21008,72.36243c-9.17468,36.45447 -22.05371,71.65296 -38.75269,105.45642c-10.64514,21.54908 -23.7063,41.50586 -37.64392,60.94666c-2.25232,3.1416 -4.41443,7.43676 -9.77404,7.39734c-0.16578,-1.4065 -0.59595,-2.4552 -0.344,-3.30091c5.26538,-17.67419 5.97107,-36.12121 6.97168,-54.1781c1.9314,-34.85339 1.78223,-69.88415 -3.72449,-104.5448c-6.28198,-39.54065 -17.72119,-77.64233 -34.2406,-114.10241c-18.61462,-41.0846 -42.44885,-79.17762 -69.20276,-115.34998c-25.87744,-34.98718 -53.13879,-68.94958 -79.09033,-103.88342c-17.42944,-23.46216 -33.72717,-47.77039 -50.26733,-71.88086c-1.89722,-2.76563 -2.09583,-6.69641 -2.45459,-10.38477c31.94641,-18.60449 63.26391,-36.91394 94.5852,-55.21716c70.97449,-41.47546 141.98694,-82.88635 212.90247,-124.46277c19.33044,-11.33325 37.46155,-24.38501 51.3501,-42.26013c6.25842,-8.05506 11.24182,-17.10071 17.44397,-25.43994c3.82287,6.02759 7.26928,11.67004 10.14587,17.5896c18.40137,37.86779 34.6322,76.69714 48.5647,116.38464c10.21801,29.10657 18.08789,59.01904 23.99158,89.34912c2.14831,11.03687 3.1184,22.29981 4.75122,33.44129c0.92797,6.33313 2.109,12.62915 3.17602,18.94177c0.74317,0.19311 1.48621,0.38623 2.22937,0.57934c1.88635,-2.48962 4.19348,-4.76391 5.59387,-7.50195c13.57495,-26.54053 27.37586,-52.98987 37.77771,-81.00354c6.3208,-17.02307 12.83545,-33.99707 18.39893,-51.27148c4.95105,-15.37256 8.86011,-31.0896 12.95166,-46.7273c3.09924,-11.84534 5.86267,-23.7821 8.59375,-35.71973c3.68872,-16.12329 7.3977,-32.24682 10.71643,-48.44836c1.85901,-9.07532 3.14075,-18.2832 4.33789,-27.47619c1.66821,-12.80945 2.92358,-25.67237 4.52161,-38.49158c1.71923,-13.79297 3.87133,-27.53589 5.37805,-41.35041c1.11426,-10.21392 1.52344,-20.50598 2.18689,-30.76702c0.17187,-2.65778 -0.21289,-5.3855 0.22192,-7.98676c3.18909,-19.07422 4.18628,-38.276 3.81323,-57.58398c-0.04736,-2.45075 0.56678,-4.91425 1.042,-8.711c2.27649,1.97351 3.77209,2.75653 4.51294,3.99212c6.83593,11.39954 14.00329,22.63422 20.18774,34.38343c12.5343,23.81225 25.4148,47.50982 36.47168,72.01312c11.01831,24.41785 19.94714,49.7771 29.90271,74.67932c0.802,2.0061 2.4646,3.66809 3.76758,6.14355c0.17651,1.51661 0.3125,2.37964 0.39355,3.94373c1.24072,3.56323 2.53638,6.42554 3.81763,9.96033c0.13428,1.55566 0.2832,2.43872 0.33032,3.98364c1.16846,2.88611 2.43799,5.11047 3.69385,8.00855c0.13232,1.55908 0.27832,2.44421 0.31201,3.9884c1.11572,2.90161 2.34326,5.14429 3.56104,8.12414c0.70507,3.57532 1.42016,6.4137 2.11596,9.85975c0.66114,1.52331 1.3418,2.43884 1.99805,4.11218c0.20044,2.25122 0.4248,3.74451 0.48193,5.88623c1.04224,2.89465 2.25196,5.14099 3.43555,8.12488c0.62866,3.59033 1.28345,6.44323 1.9126,9.97668c0.69775,2.21155 1.42139,3.74243 2.11377,6.01148c0.62671,3.59301 1.28442,6.44775 1.91284,9.98217c0.68408,2.21351 1.39697,3.74768 2.08008,6.04969c0.66821,4.2633 1.36694,7.75866 1.99975,11.93396c0.64331,2.21557 1.35254,3.75109 2.02369,6.06054c0.63598,4.27185 1.31005,7.76978 1.93188,11.94422c0.6123,2.2323 1.27734,3.78796 1.927,6.18591c0.8042,6.24976 1.62378,11.65723 2.31885,17.74121c0.52808,2.24219 1.18066,3.80786 1.79443,6.23047c0.22388,4.25684 0.48609,7.65698 0.58203,11.77612c1.04688,4.2666 2.26001,7.81397 3.43775,12.19214c0.59009,5.62195 1.21533,10.41345 1.41284,15.5166c-0.04297,1.41602 0.34204,2.52002 0.70117,4.28931c0.08057,1.54541 0.18701,2.42566 0.14063,3.97937c0.50024,2.24109 1.15332,3.80859 1.7583,6.27747c0.19702,6.27233 0.44238,11.64318 0.49804,17.59558c0.36915,1.56237 0.92749,2.54345 1.45044,4.32129c0.1211,2.91271 0.27759,5.02868 0.26856,7.94763c0.49658,4.27978 1.15893,7.75683 1.76782,12.13061c0.53272,8.29969 1.11914,15.70239 1.18018,23.71143c-0.71802,5.35913 -1.23975,10.13367 -0.93018,14.85351c0.11328,1.72632 2.19922,3.32325 3.36377,5.89197c-0.00952,25.37732 0.00244,49.8418 -0.70996,74.61707c-4.40186,7.51049 -3.74512,14.80664 -1.23682,23.02368c-0.06982,6.12121 -0.11108,11.36291 -0.63086,17.19299c-1.21582,5.68177 -1.95312,10.77515 -2.80517,16.61988c-0.12842,2.26904 -0.14234,3.78674 -0.66455,5.63476c-0.28931,2.10327 -0.06983,3.87634 0.15674,6.14356c0.00708,0.49426 0.15161,1.47229 0.06933,1.9707c-0.0791,0.8352 -0.07568,1.17187 -0.34668,2.08386c-0.49951,2.2113 -0.72461,3.84729 -1.10644,6.30139c-0.19947,3.59497 -0.24219,6.37195 -0.75977,9.40076c-0.2605,1.41467 -0.04663,2.57739 0.11792,4.33545c-0.07129,1.3916 -0.09326,2.18774 -0.70874,3.17663c-3.38769,1.91932 -3.49512,3.93531 -1.29004,7.0243c-0.12378,3.53955 -0.19922,6.26074 -0.66992,9.40771c-0.56177,1.55847 -0.72803,2.69104 -1.4292,4.14441c-0.69189,1.49121 -0.84863,2.66174 -1.14648,4.46863c-0.16431,1.50317 -0.1875,2.37024 -0.76709,3.54199c-0.64869,1.48694 -0.7417,2.66931 -1.03614,4.67322c-0.29589,4.2157 -0.39013,7.60962 -1.06665,11.42663c-1.33276,4.19056 -2.08349,7.95813 -3.00317,12.5315c-0.25855,3.55224 -0.34766,6.29846 -1.01343,9.43579c-1.30981,3.52246 -2.04321,6.65369 -2.96264,10.55176c-0.26026,2.86657 -0.33423,4.96631 -0.98438,7.44482c-0.82446,2.14868 -1.073,3.91846 -1.47388,6.45508c-0.84326,4.87842 -1.53418,8.98999 -2.73413,13.43164c-0.75683,1.47595 -1.00439,2.6217 -1.43896,4.47559c-0.73755,3.55346 -1.28833,6.3988 -2.40967,9.63989c-1.36231,3.51221 -2.15381,6.62903 -3.10254,10.46582c-0.22876,2.18982 -0.30005,3.65954 -0.94287,5.48437c-1.3396,2.84119 -2.10791,5.3274 -3.04004,8.53052c-0.23657,2.18323 -0.30884,3.64954 -0.95459,5.46729c-1.35449,2.83764 -2.13501,5.32373 -3.07275,8.52612c-0.24927,2.17822 -0.3418,3.63989 -0.95337,5.42065c-0.81446,1.45789 -1.10987,2.59668 -1.72681,4.35376c-0.78076,2.85889 -1.23974,5.09961 -2.22266,7.65772c-0.81176,1.46045 -1.0996,2.60364 -1.54003,4.48242c-2.09498,6.88696 -4.03687,13.03857 -6.49805,19.50781c-0.83423,1.45081 -1.14942,2.58399 -1.80762,4.38623c-2.1394,6.20679 -3.93555,11.74463 -6.24438,17.60132c-0.84571,1.44263 -1.17896,2.56653 -1.62622,4.35706c-0.22461,2.01403 -0.33545,3.36157 -1.01758,4.96692c-1.32593,1.63159 -2.08106,3.00549 -3.1333,4.94641c-0.74878,2.18616 -1.20069,3.8053 -2.17285,5.73767c-0.85669,1.44079 -1.19312,2.56836 -1.86243,4.3352c-4.77246,10.57825 -9.16431,20.53858 -13.66028,30.45179c-15.80847,34.85803 -34.05896,68.42834 -54.86035,100.52026c-11.72351,18.08703 -24.43518,35.58191 -37.49231,52.74194c-12.25378,16.10437 -24.8263,32.08411 -38.54797,46.92664c-22.58496,24.42993 -46.06214,48.11084 -72.35083,68.63306c-18.82569,14.69653 -38.10511,28.87036 -57.7876,42.39624c-24.62012,16.91894 -50.74207,31.40795 -77.99878,43.66113c-17.71045,7.96167 -35.69202,15.36011 -53.77954,22.42895c-11.68982,4.56836 -23.84131,7.94361 -35.65991,12.20313c-2.10755,0.75976 -3.59827,3.23071 -5.37378,4.91113z" fill="#FF7D7D"/>
  <path id="svg_5" d="m914.03345,238.45363c1.65295,-0.13512 3.3059,-0.38835 4.95886,-0.38849c111.72961,-0.01006 223.45911,0.00027 336.10779,0.92867c-0.09095,3.61187 -0.45386,6.85937 -2.21301,8.90823c-14.25342,16.60083 -28.78284,32.96426 -43.19617,49.42822c-5.02319,5.73792 -9.99243,11.52411 -14.92298,17.34195c-10.06481,11.8761 -20.00891,23.85547 -30.14892,35.6669c-9.719,11.32126 -19.6781,22.43634 -29.43176,33.72846c-11.47766,13.28808 -22.82325,26.69003 -34.27186,40.00332c-9.29504,10.80899 -18.68762,21.53427 -27.98278,32.34323c-11.2323,13.06165 -22.38465,26.19223 -33.61524,39.25562c-9.5094,11.06146 -19.13464,22.02368 -28.60968,33.11432c-10.112,11.836 -20.03375,23.83484 -30.17596,35.64459c-9.72131,11.31958 -19.67828,22.43658 -29.42359,33.7359c-11.25061,13.04492 -22.34802,26.22199 -33.57733,39.28546c-9.50934,11.0625 -19.18658,21.9812 -28.65258,33.08032c-9.88599,11.5915 -19.48426,23.42963 -29.43634,34.96308c-10.39869,12.05084 -21.18335,23.76837 -31.59369,35.80945c-15.60261,18.04663 -31.00617,36.26519 -46.53565,54.37518c-5.39728,6.29413 -11.00244,12.41083 -16.36322,18.73523c-9.85083,11.62146 -19.48669,23.42608 -29.40625,34.98779c-9.93188,11.57605 -20.1955,22.86731 -30.1405,34.43231c-10.58209,12.30597 -20.8675,24.86719 -31.45594,37.16761c-9.9508,11.55951 -20.20806,22.85479 -30.18719,34.39038c-16.04236,18.54455 -31.96307,37.19439 -47.94324,55.79278c-4.9704,5.78473 -10.02014,11.50202 -14.94116,17.32819c-9.83075,11.63879 -19.49731,23.41772 -29.41919,34.9779c-9.93408,11.57435 -20.16302,22.89515 -30.14203,34.4314c-11.48712,13.27991 -22.8121,26.69983 -34.26343,40.01099c-9.29766,10.80737 -18.71679,21.51025 -28.0115,32.32019c-11.23126,13.06201 -22.36069,26.21155 -33.58911,39.276c-5.40491,6.28845 -11.03018,12.38892 -16.38925,18.71545c-9.84668,11.62427 -19.45993,23.44763 -29.37598,35.01172c-9.92838,11.57874 -20.22461,22.84204 -30.14993,34.42334c-14.44303,16.85254 -28.5922,33.9574 -43.06354,50.7854c-14.05029,16.33838 -28.46347,32.36475 -42.50674,48.70911c-14.46448,16.83459 -28.68149,33.88196 -42.99456,50.84643c-15.78236,18.70606 -31.55095,37.42383 -47.32556,56.13636c-11.18262,-22.20325 -23.08073,-44.07959 -33.40405,-66.67542c-24.08724,-52.72253 -40.79273,-107.98718 -53.6497,-164.38476c-4.46077,-19.56739 -6.81633,-39.61463 -9.36818,-60.26978c2.2648,-1.42822 4.18531,-1.63293 5.19021,-2.69995c4.08746,-4.34021 7.93738,-8.9082 11.79697,-13.45813c18.21841,-21.47791 36.30965,-43.06445 54.64604,-64.44092c14.03143,-16.35791 28.36475,-32.45691 42.55637,-48.67749c5.24138,-5.99072 10.53357,-11.93909 15.67576,-18.01416c9.84441,-11.62988 19.49591,-23.42432 29.41796,-34.98682c9.93437,-11.5769 20.19436,-22.87414 30.14105,-34.44067c10.58374,-12.3075 20.87509,-24.86652 31.46502,-37.16858c9.95227,-11.56116 20.20597,-22.86255 30.18683,-34.39954c16.04508,-18.54675 31.97245,-37.19537 47.95474,-55.79644c4.97089,-5.78546 9.99927,-11.52185 14.92985,-17.34131c10.06454,-11.87903 20.00003,-23.86835 30.13973,-35.68256c9.71897,-11.32403 19.71219,-22.41278 29.43265,-33.73559c10.5734,-12.31635 20.88208,-24.86017 31.47202,-37.16199c9.95239,-11.56128 20.18265,-22.883 30.1788,-34.40711c11.94275,-13.7683 23.75916,-27.64611 35.64539,-41.46356c4.97473,-5.78308 10.02557,-11.50097 14.97644,-17.30426c10.75122,-12.60217 21.42541,-25.27014 32.19745,-37.85443c9.27148,-10.83111 18.6698,-21.55359 27.94873,-32.37842c10.78112,-12.57721 21.4367,-25.26232 32.25201,-37.80993c9.74316,-11.30384 19.68207,-22.43878 29.43726,-33.73236c11.47943,-13.28965 22.83203,-26.68875 34.28082,-40.00498c9.29516,-10.81131 18.69824,-21.53003 27.96777,-32.3631c10.5539,-12.33416 20.93762,-24.81439 31.53461,-37.11114c9.95898,-11.55627 20.20837,-22.86298 30.12939,-34.4512c9.90857,-11.57364 19.45319,-23.45911 29.36969,-35.02579c9.92871,-11.58096 20.18396,-22.88141 30.17981,-34.40558c11.94263,-13.76858 23.92048,-27.5127 35.54908,-41.54419c4.10626,-4.95485 9.81781,-9.15245 10.15869,-16.51283z" fill="#FF5C5C"/>
  <path id="svg_6" d="m1385.79651,1371.92712c0.98608,3.39051 1.18469,7.32129 3.08191,10.08692c16.54016,24.11047 32.83789,48.4187 50.26733,71.88086c25.95154,34.93384 53.21289,68.89624 79.09033,103.88342c26.75391,36.17236 50.58814,74.26538 69.20276,115.34998c16.51941,36.46008 27.95862,74.56176 34.2406,114.10241c5.50672,34.66065 5.65589,69.69141 3.72449,104.5448c-1.00061,18.05689 -1.7063,36.50391 -6.97168,54.1781c-0.25195,0.84571 0.17822,1.89441 0.344,3.30091c5.35961,0.03942 7.52172,-4.25574 9.77404,-7.39734c13.93762,-19.4408 26.99878,-39.39758 37.64392,-60.94666c16.69898,-33.80346 29.57801,-69.00195 38.75269,-105.45642c5.98145,-23.76648 11.38989,-47.76721 13.21008,-72.36243c0.51367,-6.94213 1.23389,-13.87597 2.12818,-20.7788c0.26513,-2.04688 1.44873,-3.97474 2.66565,-7.13794c6.63244,6.93188 8.21936,14.84741 10.80908,22.08789c5.02331,14.04394 9.89734,28.17029 14.05261,42.48901c5.99927,20.67249 12.10644,41.34253 14.37512,62.91345c1.45508,13.83545 4.0531,27.56067 5.22937,41.41248c0.95593,11.2594 0.69947,22.63318 0.73267,33.95691c0.06323,21.62036 -2.06018,42.96118 -5.45227,64.40063c-6.42163,40.58582 -19.99292,78.45996 -39.2887,114.40796c-11.80786,21.9978 -26.13306,42.30444 -42.28503,61.48657c-30.82715,36.61109 -67.73181,65.67603 -108.66992,89.8418c-27.75232,16.38208 -56.81678,30.31006 -87.26441,40.87622c-18.74792,6.5061 -38.09119,11.36279 -57.31457,16.39722c-6.67945,1.74927 -13.81177,1.73462 -20.71363,2.69604c-1.47094,0.20484 -2.83886,1.14966 -4.25415,2.41895c-12.68176,0.50415 -24.93078,-1.71143 -36.77502,-6.41895c-7.46533,-2.96679 -11.81568,-7.78491 -10.06006,-16.00512c1.85791,-8.69849 3.5907,-17.60108 6.95532,-25.7649c8.0282,-19.47924 20.59937,-36.41919 31.9104,-54.05297c21.35926,-33.29859 42.87134,-66.55152 60.61597,-101.95289c6.354,-12.67651 11.75354,-26.24096 14.88696,-40.01477c3.61316,-15.88171 3.90344,-32.34887 -4.95166,-47.46826c-8.40796,-14.35559 -20.81421,-23.36169 -36.87439,-26.56176c-9.02942,-1.79908 -18.45898,-2.18616 -27.7091,-2.19288c-147.66004,-0.10669 -295.32007,-0.0487 -443.9928,-0.84411c-2.42871,-5.9126 -4.04163,-10.96424 -5.22357,-16.11487c-3.32825,-14.50403 -6.89966,-28.97193 -9.56714,-43.60144c-2.13623,-11.71582 -3.26917,-23.6283 -4.51923,-35.48816c-1.35425,-12.84998 -3.03613,-25.72424 -3.32257,-38.61572c-0.62103,-27.9419 2.56879,-55.57483 7.39526,-83.12696c5.23847,-29.90332 14.05207,-58.65759 25.93427,-86.43261c10.34399,-24.17945 23.3537,-46.97388 39.09155,-68.16541c2.86573,-3.85889 4.49103,-8.63891 7.54163,-13.2229c2.01324,-0.1383 3.17376,-0.04736 4.17065,0.85278c0.13788,4.75989 -0.11926,8.85071 0.8299,12.63916c7.50506,29.95508 20.6773,57.52601 37.38861,83.24939c13.36596,20.57386 27.6001,40.66468 42.65735,60.03052c9.95544,12.80408 21.91406,24.07691 33.26843,35.75086c3.32373,3.41699 7.65076,5.85815 11.51782,8.7467c0.59863,-0.41882 1.19715,-0.83765 1.79566,-1.25659c-0.68128,-2.3125 -1.35559,-4.6272 -2.04493,-6.93738c-7.30566,-24.48083 -15.57373,-48.72607 -21.63696,-73.51074c-5.50085,-22.48584 -9.05493,-45.48841 -12.60986,-68.39636c-2.63831,-17.00196 -3.78186,-34.23157 -5.83264,-51.33082c-1.01184,-8.43615 -2.56995,-16.80676 -3.44373,-25.7091c2.81519,-1.60999 5.30213,-2.53235 7.55408,-3.85498c17.71606,-10.40491 35.3728,-20.91052 53.07519,-31.33875c29.98303,-17.66247 59.97913,-35.30322 89.98365,-52.92944c22.57519,-13.26209 45.14453,-26.53418 67.76684,-39.71545c22.33826,-13.01599 44.73987,-25.9231 67.11365,-38.87806z" fill="#FED5D5"/>
  <path id="svg_8" d="m1013.39014,1564.74451c-2.19794,4.35486 -3.82324,9.13488 -6.68897,12.99377c-15.73785,21.19153 -28.74756,43.98596 -39.09155,68.16541c-11.8822,27.77502 -20.6958,56.52929 -25.93427,86.43261c-4.82647,27.55213 -8.01629,55.18506 -7.39526,83.12696c0.28644,12.89148 1.96832,25.76574 3.32257,38.61572c1.25006,11.85986 2.383,23.77234 4.51923,35.48816c2.66748,14.62951 6.23889,29.09741 9.56714,43.60144c1.18194,5.15063 2.79486,10.20227 4.29022,16.08301c-25.15857,0.65686 -50.44605,1.48877 -75.62299,0.18579c-41.3808,-2.1416 -82.50024,-7.15943 -123.16138,-15.43787c-0.6499,-0.1322 -1.30975,-0.21582 -2.79486,-1.42212c-11.46295,-17.83923 -22.6643,-34.24853 -32.60577,-51.38867c-18.43884,-31.79028 -36.82556,-63.67065 -50.99579,-97.68494c-11.44409,-27.47058 -22.76922,-55.00525 -33.3648,-82.80957c-6.58228,-17.27307 -11.70569,-35.10193 -17.46601,-53.35827c-0.65991,-2.22498 -1.33771,-3.7732 -2.01721,-6.10034c-2.01282,-8.25733 -4.02399,-15.73536 -6.04297,-23.81299c-0.64178,-1.54041 -1.27582,-2.48157 -1.91003,-4.19532c-0.6958,-4.24987 -1.39154,-7.72717 -2.09595,-11.80261c-0.63153,-1.54358 -1.25433,-2.48901 -1.87976,-4.24695c-0.75116,-5.58435 -1.49982,-10.35632 -2.22156,-15.72937c-0.6051,-1.54296 -1.237,-2.48486 -1.85168,-4.20068c-0.66272,-4.2594 -1.34272,-7.74475 -1.99231,-11.9635c-0.65381,-2.90991 -1.33795,-5.08655 -2.00183,-8.06775c-0.66364,-4.93579 -1.3476,-9.06689 -1.99415,-13.93225c-0.65649,-2.90796 -1.35034,-5.08179 -2.02313,-8.08765c-0.64074,-5.61767 -1.30249,-10.40332 -1.93914,-15.96435c-0.67042,-3.58789 -1.36585,-6.40027 -2.04304,-10.10034c-0.12335,-5.61609 -0.26489,-10.34449 -0.38702,-15.87696c-1.17633,-10.31323 -2.47626,-19.81067 -3.5332,-29.33532c-0.76587,-6.90149 -1.25861,-13.83496 -1.78516,-20.76099c-0.7785,-10.24219 -2.14087,-20.4939 -2.08783,-30.73547c0.1546,-29.86048 -0.737,-59.65601 3.20722,-89.54627c2.45782,-18.6261 3.35168,-37.61523 6.85913,-56.11011c5.42309,-28.59607 11.30102,-57.16528 18.60632,-85.32556c5.38843,-20.77075 12.48377,-41.21887 20.39392,-61.18652c11.22565,-28.33704 22.99542,-56.53418 36.17517,-84.00293c17.79505,-37.08795 38.91272,-72.45905 61.29468,-106.94367c14.60492,-22.50219 31.07098,-43.79931 46.84338,-65.53466c1.10102,-1.51728 3.36725,-2.18891 5.6521,-3.59992c3.04438,19.49469 5.73371,37.7887 8.79596,56.02021c3.00733,17.90423 6.01288,35.8247 9.74073,53.58666c2.71124,12.91816 6.89947,25.5196 9.88739,38.38807c4.48669,19.32366 11.52081,37.71881 20.14398,55.45977c5.45642,11.22559 11.77569,22.094 18.4624,32.64454c9.48657,14.96826 21.19092,28.02392 36.47394,37.43261c1.75213,1.07862 3.93695,1.45471 7.1181,2.58008c0,-5.26477 0.24023,-9.20154 -0.04193,-13.10059c-1.1709,-16.18029 -2.60669,-32.34167 -3.73401,-48.52478c-0.80609,-11.57202 -1.30377,-23.16626 -1.87036,-34.75402c-0.09692,-1.98218 0.0791,-3.9878 0.25464,-5.97144c0.46582,-5.26611 1.44562,-10.52734 1.43091,-15.78833c-0.06592,-23.58752 1.07745,-47.08936 4.03839,-70.49774c2.15887,-17.06751 3.36432,-34.31476 6.60742,-51.17169c4.62402,-24.03479 10.63592,-47.8067 16.32288,-71.62696c0.60846,-2.54846 2.99902,-4.67144 4.81195,-6.07232c0.31091,13.23858 0.42584,25.5578 0.42657,37.87695c0.01227,194.133 0.03559,388.26593 -0.02691,582.39899c-0.00678,21.08044 2.11236,41.86499 8.26269,62.03576c6.14148,20.14185 16.09021,37.93714 33.88196,50.39026c15.4422,10.80884 32.81268,13.96851 51.20984,13.26502z" fill="#FF7E7E"/>
  <path id="svg_10" d="m913.11352,238.26914c0.57905,7.54487 -5.1325,11.74247 -9.23876,16.69732c-11.6286,14.03149 -23.60645,27.77561 -35.54908,41.54419c-9.99585,11.52417 -20.2511,22.82462 -30.17981,34.40558c-9.9165,11.56668 -19.46112,23.45215 -29.36969,35.02579c-9.92102,11.58822 -20.17041,22.89493 -30.12939,34.4512c-10.59699,12.29675 -20.98071,24.77698 -31.53461,37.11114c-9.26953,10.83307 -18.67261,21.55179 -27.96777,32.3631c-11.44879,13.31623 -22.80139,26.71533 -34.28082,40.00498c-9.75519,11.29358 -19.6941,22.42852 -29.43726,33.73236c-10.81531,12.54761 -21.47089,25.23272 -32.25201,37.80993c-9.27893,10.82483 -18.67725,21.54731 -27.94873,32.37842c-10.77204,12.58429 -21.44623,25.25226 -32.19745,37.85443c-4.95087,5.80329 -10.00171,11.52118 -14.97644,17.30426c-11.88623,13.81745 -23.70264,27.69526 -35.64539,41.46356c-9.99615,11.52411 -20.22641,22.84583 -30.1788,34.40711c-10.58994,12.30182 -20.89862,24.84564 -31.47202,37.16199c-9.72046,11.32281 -19.71368,22.41156 -29.43265,33.73559c-10.1397,11.81421 -20.07519,23.80353 -30.13973,35.68256c-4.93058,5.81946 -9.95896,11.55585 -14.92985,17.34131c-15.98229,18.60107 -31.90966,37.24969 -47.95474,55.79644c-9.98086,11.53699 -20.23456,22.83838 -30.18683,34.39954c-10.58993,12.30206 -20.88128,24.86108 -31.46502,37.16858c-9.94669,11.56653 -20.20668,22.86377 -30.14105,34.44067c-9.92205,11.5625 -19.57355,23.35694 -29.41796,34.98682c-5.14219,6.07507 -10.43438,12.02344 -15.67576,18.01416c-14.19162,16.22058 -28.52494,32.31958 -42.55637,48.67749c-18.33639,21.37647 -36.42763,42.96301 -54.64604,64.44092c-3.85959,4.54993 -7.70951,9.11792 -11.79697,13.45813c-1.0049,1.06702 -2.92541,1.27173 -5.11998,1.89429c-2.90732,-20.47217 -5.95815,-40.91871 -7.12051,-61.47181c-1.46523,-25.90869 -2.38468,-51.92724 -1.78891,-77.85839c1.72822,-75.22309 13.28573,-149.01716 34.7938,-221.17634c36.43062,-122.22436 96.9258,-231.14434 182.01598,-326.10699c119.93912,-133.85483 267.4606,-222.07986 442.12778,-264.57068c39.146,-9.52292 78.85388,-16.25711 119.09991,-19.12494c21.89929,-1.56048 43.84705,-2.44035 66.69293,-3.44271z" fill="#FF6565"/>
  <path id="svg_11" d="m919.38696,817.85809c-1.5639,2.32032 -3.95446,4.4433 -4.56292,6.99176c-5.68696,23.82026 -11.69886,47.59217 -16.32288,71.62696c-3.2431,16.85693 -4.44855,34.10418 -6.60742,51.17169c-2.96094,23.40838 -4.10431,46.91022 -4.03839,70.49774c0.01471,5.26099 -0.96509,10.52222 -1.43091,15.78833c-0.17554,1.98364 -0.35156,3.98926 -0.25464,5.97144c0.56659,11.58776 1.06427,23.182 1.87036,34.75402c1.12732,16.18311 2.56311,32.34449 3.73401,48.52478c0.28216,3.89905 0.04193,7.83582 0.04193,13.10059c-3.18115,-1.12537 -5.36597,-1.50146 -7.1181,-2.58008c-15.28302,-9.40869 -26.98737,-22.46435 -36.47394,-37.43261c-6.68671,-10.55054 -13.00598,-21.41895 -18.4624,-32.64454c-8.62317,-17.74096 -15.65729,-36.13611 -20.14398,-55.45977c-2.98792,-12.86847 -7.17615,-25.46991 -9.88739,-38.38807c-3.72785,-17.76196 -6.7334,-35.68243 -9.74073,-53.58666c-3.06225,-18.23151 -5.75158,-36.52552 -8.79596,-56.02021c-2.28485,1.41101 -4.55108,2.08264 -5.6521,3.59992c-15.7724,21.73535 -32.23846,43.03247 -46.84338,65.53466c-22.38196,34.48462 -43.49963,69.85572 -61.29468,106.94367c-13.17975,27.46875 -24.94952,55.66589 -36.17517,84.00293c-7.91015,19.96765 -15.00549,40.41577 -20.39392,61.18652c-7.3053,28.16028 -13.18323,56.72949 -18.60632,85.32556c-3.50745,18.49488 -4.40131,37.48401 -6.85913,56.11011c-3.94422,29.89026 -3.05262,59.68579 -3.20722,89.54627c-0.05304,10.24157 1.30933,20.49328 2.08783,30.73547c0.52655,6.92603 1.01929,13.8595 1.78516,20.76099c1.05694,9.52465 2.35687,19.02209 2.86438,29.1549c-2.74103,-4.3219 -4.7937,-9.26745 -7.03656,-14.67126c-2.04016,1.0498 -4.4953,1.64941 -5.96045,3.19031c-4.55664,4.79199 -8.75696,9.92443 -13.06055,14.95471c-10.96521,12.81665 -21.87701,25.67907 -32.87555,38.46692c-9.71228,11.29236 -19.56726,22.46191 -29.25976,33.77111c-10.3292,12.05213 -20.45905,24.27576 -30.82834,36.29285c-10.1651,11.78052 -20.64832,23.28736 -30.76389,35.1095c-13.974,16.33154 -27.62332,32.9414 -41.62277,49.25098c-10.34946,12.05725 -21.18518,23.69848 -31.47104,35.80798c-2.69272,3.17017 -4.14331,7.39551 -6.16428,11.13623c-14.13534,-13.05237 -28.72964,-25.64563 -42.32607,-39.23706c-57.00388,-56.98267 -104.89847,-120.86145 -143.74344,-192.29273c15.6325,-19.40991 31.40109,-38.12768 47.18345,-56.83374c14.31307,-16.96447 28.53008,-34.01184 42.99456,-50.84643c14.04327,-16.34436 28.45645,-32.37073 42.50674,-48.70911c14.47134,-16.828 28.62051,-33.93286 43.06354,-50.7854c9.92532,-11.5813 20.22155,-22.8446 30.14993,-34.42334c9.91605,-11.56409 19.5293,-23.38745 29.37598,-35.01172c5.35907,-6.32653 10.98434,-12.427 16.38925,-18.71545c11.22842,-13.06445 22.35785,-26.21399 33.58911,-39.276c9.29471,-10.80994 18.71384,-21.51282 28.0115,-32.32019c11.45133,-13.31116 22.77631,-26.73108 34.26343,-40.01099c9.97901,-11.53625 20.20795,-22.85705 30.14203,-34.4314c9.92188,-11.56018 19.58844,-23.33911 29.41919,-34.9779c4.92102,-5.82617 9.97076,-11.54346 14.94116,-17.32819c15.98017,-18.59839 31.90088,-37.24823 47.94324,-55.79278c9.97913,-11.53559 20.23639,-22.83087 30.18719,-34.39038c10.58844,-12.30042 20.87385,-24.86164 31.45594,-37.16761c9.945,-11.565 20.20862,-22.85626 30.1405,-34.43231c9.91956,-11.56171 19.55542,-23.36633 29.40625,-34.98779c5.36078,-6.3244 10.96594,-12.4411 16.36322,-18.73523c15.52948,-18.10999 30.93304,-36.32855 46.53565,-54.37518c10.41034,-12.04108 21.195,-23.75861 31.59369,-35.80945c9.95208,-11.53345 19.55035,-23.37158 29.43634,-34.96308c9.466,-11.09912 19.14324,-22.01782 28.65258,-33.08032c11.22931,-13.06347 22.32672,-26.24054 33.57733,-39.28546c9.74531,-11.29932 19.70228,-22.41632 29.42359,-33.7359c10.14221,-11.80975 20.06396,-23.80859 30.17596,-35.64459c9.47504,-11.09064 19.10028,-22.05286 28.60968,-33.11432c11.23059,-13.06339 22.38294,-26.19397 33.61524,-39.25562c9.29516,-10.80896 18.68774,-21.53424 27.98278,-32.34323c11.44861,-13.31329 22.7942,-26.71524 34.27186,-40.00332c9.75366,-11.29212 19.71276,-22.4072 29.43176,-33.72846c10.14001,-11.81143 20.08411,-23.7908 30.14892,-35.6669c4.93055,-5.81784 9.89979,-11.60403 14.92298,-17.34195c14.41333,-16.46396 28.94275,-32.82739 43.19617,-49.42822c1.75915,-2.04886 2.12206,-5.29636 3.13513,-8.72189c1.65454,-0.86701 3.30578,-1.11719 4.95715,-1.11739c87.04126,-0.01024 174.0824,0.00069 262.05151,0.76756c0.94812,1.56946 0.96839,2.38071 0.31116,3.48398c-20.14868,8.39322 -39.82935,16.03052 -59.03674,24.71488c-23.17322,10.47744 -46.11402,21.50604 -68.84119,32.92178c-21.51098,10.80487 -42.99658,21.76324 -63.79724,33.85196c-23.46436,13.63672 -46.49976,28.08905 -69.07764,43.15188c-22.03918,14.7035 -43.4591,30.36371 -64.77234,46.11606c-11.43701,8.45297 -22.27026,17.7608 -33.03405,27.07791c-17.04737,14.75629 -34.31421,29.31613 -50.57239,44.91373c-25.40491,24.37274 -48.73816,50.76312 -70.37476,78.51288c-13.40857,17.19696 -25.32654,35.55615 -38.78759,53.53296c-28.0044,1.3761 -49.59815,12.81836 -63.98401,36.00384c-5.36921,8.65369 -9.52863,18.30512 -12.73944,27.99848c-6.31195,19.05597 -8.22638,38.91613 -8.3534,58.9541c-0.14325,22.59808 -0.38525,45.19555 -0.58429,67.79333z" fill="#FF5353"/>
  <path id="svg_12" d="m2065.90088,1108.05359c-1.26294,-1.82178 -2.92554,-3.48377 -3.72754,-5.48987c-9.95557,-24.90222 -18.8844,-50.26147 -29.90271,-74.67932c-11.05688,-24.5033 -23.93738,-48.20087 -36.47168,-72.01312c-6.18445,-11.74921 -13.35181,-22.98389 -20.18774,-34.38343c-0.74085,-1.23559 -2.23645,-2.01861 -4.51294,-3.99212c-0.47522,3.79675 -1.08936,6.26025 -1.042,8.711c0.37305,19.30798 -0.62414,38.50976 -3.81323,57.58398c-0.43481,2.60126 -0.05005,5.32898 -0.22192,7.98676c-0.66345,10.26104 -1.07263,20.5531 -2.18689,30.76702c-1.50672,13.81452 -3.65882,27.55744 -5.37805,41.35041c-1.59803,12.81921 -2.8534,25.68213 -4.52161,38.49158c-1.19714,9.19299 -2.47888,18.40087 -4.33789,27.47619c-3.31873,16.20154 -7.02771,32.32507 -10.71643,48.44836c-2.73108,11.93763 -5.49451,23.87439 -8.59375,35.71973c-4.09155,15.6377 -8.00061,31.35474 -12.95166,46.7273c-5.56348,17.27441 -12.07813,34.24841 -18.39893,51.27148c-10.40185,28.01367 -24.20276,54.46301 -37.77771,81.00354c-1.40039,2.73804 -3.70752,5.01233 -5.59387,7.50195c-0.74316,-0.19311 -1.4862,-0.38623 -2.22937,-0.57934c-1.06702,-6.31262 -2.24805,-12.60864 -3.17602,-18.94177c-1.63282,-11.14148 -2.60291,-22.40442 -4.75122,-33.44129c-5.90369,-30.33008 -13.77357,-60.24255 -23.99158,-89.34912c-13.9325,-39.6875 -30.16333,-78.51685 -48.5647,-116.38464c-2.87659,-5.91956 -6.323,-11.56201 -10.12854,-18.39258c8.07568,-28.93958 2.12207,-54.2478 -15.36548,-76.75147c-7.85681,-10.11047 -17.45556,-18.94348 -26.79126,-27.80017c-5.70801,-5.41516 -12.41797,-9.77423 -18.64575,-15.36059c-0.396,-4.72418 -0.8385,-8.68567 -6.2384,-10.11597c-2.15906,-4.17682 -3.97071,-7.77685 -5.21082,-11.77875c3.27332,-8.53119 9.34802,-14.2174 14.77832,-20.44812c10.22986,-11.73724 20.07581,-23.8081 30.22034,-35.62079c9.72339,-11.32257 19.68237,-22.44262 29.43017,-33.74438c11.25367,-13.04785 22.35547,-26.22662 33.58704,-39.2937c9.51099,-11.06549 19.1648,-22.00842 28.66077,-33.08679c10.56555,-12.3263 20.9508,-24.80768 31.55017,-37.10468c9.9613,-11.55652 20.17431,-22.89593 30.13928,-34.44928c11.03674,-12.79602 21.88684,-25.75299 32.87708,-38.5896c9.05761,-10.57947 18.22729,-21.06311 27.30004,-31.6297c11.22498,-13.07324 22.37439,-26.21142 33.60657,-39.27844c9.51099,-11.06494 19.12952,-22.03754 28.63477,-33.1073c10.79309,-12.56952 21.46191,-25.24603 32.2799,-37.79407c9.74537,-11.30383 19.71485,-22.41516 29.40992,-33.76111c9.89892,-11.58441 19.51953,-23.40628 29.38012,-35.02374c11.58008,-13.64358 23.13941,-27.31097 35.04493,-40.66781c2.94604,-3.30533 7.1936,-5.45041 10.84301,-8.12876c17.41284,16.41062 35.49488,32.17319 52.12281,49.34387c71.802,74.14582 128.54126,158.50574 169.04687,253.9776c-2.26416,1.22528 -4.32471,1.21143 -5.28931,2.23249c-4.54345,4.80871 -8.83105,9.86346 -13.12841,14.89984c-10.73487,12.58087 -21.36084,25.25525 -32.15357,37.78589c-9.72314,11.28881 -19.66406,22.38971 -29.40991,33.6593c-11.68555,13.51282 -23.25415,27.12689 -34.89746,40.67627c-5.17969,6.02765 -10.48511,11.94787 -15.61768,18.01501c-9.82519,11.61408 -19.46557,23.38587 -29.37256,34.92896c-9.91943,11.55725 -20.13378,22.8609 -30.10473,34.37451c-11.69507,13.50433 -23.24634,27.13342 -34.89966,40.67425c-9.06958,10.53852 -18.27344,20.96174 -27.28271,31.55109c-10.07203,11.83838 -19.68287,24.08447 -30.07496,35.63049c-8.37719,9.30738 -17.01684,18.26111 -21.25146,30.39295z" fill="#F13939"/>
  <path id="svg_13" d="m1689.89954,982.04114c1.81176,3.6001 3.62341,7.20013 5.77722,12.14624c0.30639,2.88074 0.27063,4.41546 -0.48462,5.9176c-3.39539,-1.37402 -6.14905,-2.58069 -8.73535,-4.07672c-56.51416,-32.68982 -113.01453,-65.40357 -169.50769,-98.12976c-68.30884,-39.57092 -136.60327,-79.16675 -204.9137,-118.7348c-66.87,-38.73365 -133.77991,-77.39826 -200.61731,-116.18824c-32.79126,-19.03076 -66.29871,-35.81433 -105.49597,-36.00647c12.58703,-17.83746 24.505,-36.19665 37.91357,-53.39361c21.6366,-27.74976 44.96985,-54.14014 70.37476,-78.51288c16.25818,-15.5976 33.52502,-30.15744 50.57239,-44.91373c10.76379,-9.31711 21.59704,-18.62494 33.03405,-27.07791c21.31324,-15.75235 42.73316,-31.41256 64.77234,-46.11606c22.57788,-15.06283 45.61328,-29.51516 69.07764,-43.15188c20.80066,-12.08872 42.28626,-23.04709 63.79724,-33.85196c22.72717,-11.41574 45.66797,-22.44434 68.84119,-32.92178c19.20739,-8.68436 38.88806,-16.32166 59.65661,-24.79008c2.19226,-1.58058 3.08716,-2.79391 3.98206,-4.00727c10.78662,-0.05852 21.57324,-0.11701 33.17249,0.68475c-13.05164,21.86803 -26.99463,42.85027 -37.01026,66.06633c-6.17664,14.31726 -13.45593,28.42746 -17.3811,43.38107c-5.1947,19.78952 -10.87085,39.49213 -13.70484,60.0228c-2.50219,18.12686 -3.97534,36.31763 -4.49695,54.40137c-0.58996,20.45016 1.77564,41.04666 3.7782,61.48919c1.35205,13.80298 3.40589,27.67084 6.7334,41.1167c5.56885,22.50318 11.60913,44.95709 18.91321,66.94599c8.88171,26.73748 19.22253,52.99279 29.13745,79.37951c0.70557,1.87787 3.0957,3.12281 4.70654,5.43195c2.1261,6.7746 4.24829,12.77924 6.39124,19.42505c1.21142,1.66455 2.4021,2.68799 3.70325,4.42163c1.52087,4.7782 2.93139,8.84631 4.34826,13.55615c1.19861,1.65631 2.39087,2.6709 3.61487,4.30457c0.11414,1.44153 0.19666,2.26385 0.30994,3.72888c1.25061,1.63379 2.47033,2.625 3.77759,4.31091c1.43725,4.15222 2.78711,7.6098 4.18457,11.70642c1.26098,1.6405 2.47448,2.64185 3.71801,4.35071c1.42285,4.14551 2.81543,7.58344 4.26245,11.65808c1.25782,1.65064 2.46131,2.66455 3.6886,4.29383c0.10401,1.43231 0.18433,2.24932 0.318,3.70397c1.26294,1.64368 2.47277,2.64985 3.70605,4.27436c0.09998,1.43982 0.17664,2.26129 0.30335,3.72076c1.26196,1.64112 2.47363,2.64429 3.72741,4.38702c1.41077,4.09113 2.48584,7.60139 4.19544,10.76893c11.62426,21.53704 23.31189,43.04065 35.11596,64.47973c13.55872,24.62622 27.16651,49.22657 40.96167,73.72058c3.52222,6.25391 7.83252,12.06403 11.78077,18.07807z" fill="#FF7E7E"/>
  <path id="svg_14" d="m1690.47119,981.63934c-4.5199,-5.61224 -8.8302,-11.42236 -12.35242,-17.67627c-13.79516,-24.49401 -27.40295,-49.09436 -40.96167,-73.72058c-11.80407,-21.43908 -23.4917,-42.94269 -35.11596,-64.47973c-1.7096,-3.16754 -2.78467,-6.6778 -4.1947,-11.43787c-1.28699,-2.39099 -2.5326,-3.37353 -3.77832,-4.35608c-0.07654,-0.82147 -0.1532,-1.64294 -0.24891,-3.75372c-1.26733,-2.27326 -2.5155,-3.25714 -3.76367,-4.24103c-0.08032,-0.81702 -0.16064,-1.63403 -0.25061,-3.74066c-1.25891,-2.27844 -2.50793,-3.26734 -3.75708,-4.25617c-1.39258,-3.43798 -2.78516,-6.87591 -4.20923,-11.68939c-1.27563,-2.35766 -2.52002,-3.33972 -3.76428,-4.32184c-1.34997,-3.45752 -2.69983,-6.9151 -4.15063,-11.72766c-1.33228,-2.33441 -2.5636,-3.31384 -3.79493,-4.29321c-0.08239,-0.82239 -0.16491,-1.64471 -0.28088,-3.74317c-1.22888,-2.28045 -2.42419,-3.28485 -3.61938,-4.28924c-1.41053,-4.06824 -2.82105,-8.13635 -4.33081,-13.58081c-1.31116,-2.38306 -2.5232,-3.38983 -3.73511,-4.39655c-2.1222,-6.00463 -4.24439,-12.00927 -6.3739,-19.61956c-3.3783,-10.88617 -1.92066,-19.02796 5.08422,-26.31513c5.04041,-5.24353 9.5492,-10.99884 14.28199,-16.53705c10.96215,-12.82714 21.8822,-25.69055 32.88415,-38.48352c9.71497,-11.29681 19.58521,-22.46069 29.26306,-33.78894c9.8833,-11.56842 19.5011,-23.3645 29.44605,-34.87884c10.39075,-12.03046 21.19238,-23.70728 31.52563,-35.78595c13.76258,-16.08722 27.08558,-32.55115 40.89283,-48.59918c14.68481,-17.06815 29.88879,-33.6901 44.54931,-50.77848c17.87989,-20.8407 35.28662,-42.08728 53.16687,-62.92764c14.66101,-17.08801 29.86096,-33.71353 44.52588,-50.79834c5.99939,-6.98959 11.21912,-14.6485 16.7937,-22.0029c20.44592,8.67471 41.22583,16.64481 61.27722,26.15149c70.06177,33.21762 133.96009,75.89084 192.44373,127.72919c-3.35913,3.28891 -7.60669,5.43399 -10.55273,8.73932c-11.90552,13.35684 -23.46485,27.02423 -35.04493,40.66781c-9.86059,11.61746 -19.4812,23.43933 -29.38012,35.02374c-9.69507,11.34595 -19.66455,22.45728 -29.40992,33.76111c-10.81799,12.54804 -21.48681,25.22455 -32.2799,37.79407c-9.50525,11.06976 -19.12378,22.04236 -28.63477,33.1073c-11.23218,13.06702 -22.38159,26.2052 -33.60657,39.27844c-9.07275,10.56659 -18.24243,21.05023 -27.30004,31.6297c-10.99024,12.83661 -21.84034,25.79358 -32.87708,38.5896c-9.96497,11.55335 -20.17798,22.89276 -30.13928,34.44928c-10.59937,12.297 -20.98462,24.77838 -31.55017,37.10468c-9.49597,11.07837 -19.14978,22.0213 -28.66077,33.08679c-11.23157,13.06708 -22.33337,26.24585 -33.58704,39.2937c-9.7478,11.30176 -19.70678,22.42181 -29.43017,33.74438c-10.14453,11.81269 -19.99048,23.88355 -30.22034,35.62079c-5.4303,6.23072 -11.505,11.91693 -14.77832,20.44812z" fill="#F64242"/>
  <path id="svg_17" d="m2058.08325,1798.01733c1.79614,-5.53784 3.59229,-11.07568 6.29517,-17.35498c3.22168,-1.59143 3.85693,-2.81115 1.76318,-4.63147c1.94214,-6.15149 3.88403,-12.3031 6.52979,-19.27429c2.96924,-1.70386 3.54712,-2.93835 1.51318,-4.71557c0.45899,-2.24073 0.91797,-4.48145 2.25879,-7.41883c3.18335,-1.57629 3.79077,-2.80542 1.68603,-4.59424c0.09229,-1.46179 0.18482,-2.92346 1.03418,-5.26794c4.14649,-2.72449 6.39869,-4.89856 3.04615,-8.71143c0.07226,-1.46618 0.14453,-2.93249 0.97632,-5.28564c4.13305,-2.74084 6.3767,-4.92053 3.0166,-8.71558c0.07104,-1.46985 0.14233,-2.93957 0.95923,-5.33374c3.26367,-3.75073 6.73022,-6.34924 3.08496,-10.6571c0.55078,-2.84546 1.10156,-5.6908 2.39673,-9.33069c3.09594,-1.75085 3.5332,-3.02258 1.39038,-4.71924c0.69091,-4.11157 1.38183,-8.22314 2.81909,-13.23413c3.72705,-2.49756 3.67383,-4.46692 1.45605,-6.70129c0.07398,-2.09973 0.14795,-4.19947 1.01074,-7.25708c5.17994,-3.41663 5.91211,-6.67774 2.93677,-10.75183c0.08911,-2.74622 0.17822,-5.49244 1.02271,-9.27491c3.17968,-4.61035 6.17578,-8.0747 2.99951,-12.72424c0.09424,-3.39404 0.18848,-6.78796 0.95093,-11.16003c0.82104,-2.25916 0.97339,-3.54041 1.12573,-4.82154c0.02344,-0.86706 0.04663,-1.73413 0.71142,-3.36767c0.82129,-2.06385 1.00098,-3.36145 1.18067,-4.65894c0.1665,-1.13269 0.33276,-2.26526 1.63306,-3.84778c6.39355,-3.19592 3.50415,-6.77392 2.13012,-10.99634c-0.10449,-2.40075 -0.20971,-4.00256 -0.31494,-5.60437c0.02173,-0.79614 0.0437,-1.59228 0.59522,-3.24243c0.31201,-2.0122 0.09448,-3.17053 -0.1233,-4.32885c0.04273,-2.77686 0.08545,-5.55384 0.94947,-9.1897c2.04931,-1.70691 3.2771,-2.55481 4.50464,-3.40271c-1.2627,-1.14429 -2.52539,-2.28858 -3.78809,-3.43298c-0.00366,-0.3368 -0.00708,-0.67347 0.51563,-1.71924c1.07788,-1.10681 1.4541,-1.63074 1.65258,-2.28565c-0.00195,-0.00488 0.00782,0.00293 0.68994,-0.1145c1.19898,-1.42786 2.16016,-2.74402 2.14454,-4.0481c-0.04053,-3.27856 -0.52198,-6.55175 -0.82666,-10.66015c0.01635,-3.60669 0.0332,-6.38013 0.76904,-9.3042c3.05615,-5.03516 4.66772,-10.47083 7.87646,-14.69275c7.4043,-9.74206 15.50977,-18.95801 23.4668,-28.27136c9.68213,-11.33216 19.54443,-22.50989 29.25391,-33.81873c10.56396,-12.30383 20.98266,-24.73266 31.5747,-37.0122c9.95337,-11.53931 20.12037,-22.89429 30.06446,-34.44153c10.7976,-12.53858 21.40893,-25.23706 32.17114,-37.8064c9.26318,-10.81836 18.66357,-21.51941 27.9314,-32.33374c10.76806,-12.5647 21.39819,-25.24805 32.1997,-37.78357c9.73096,-11.29284 19.71729,-22.3667 29.39991,-33.70044c9.88598,-11.57177 19.46582,-23.4049 29.31347,-35.00976c11.78028,-13.88196 23.53809,-27.79065 35.67066,-41.36145c3.40039,-3.80335 8.0852,-6.45826 12.18115,-9.6399c-0.80176,24.94825 -0.77051,49.95826 -2.61157,74.82959c-2.43189,32.85535 -5.52613,65.70618 -9.76221,98.37415c-9.90381,76.37585 -26.13184,151.43347 -49.58008,224.85583c-35.83667,112.2135 -86.95386,216.71033 -157.93628,311.04847c-87.5039,116.29553 -196.47204,207.62024 -324.01111,277.12634c-90.82885,49.5 -186.71789,85.77685 -287.46801,109.20776c-2.9159,0.67798 -5.85303,1.26514 -9.52332,2c1.03235,-1.57495 2.52307,-4.0459 4.63062,-4.80566c11.8186,-4.25952 23.97009,-7.63477 35.65991,-12.20313c18.08752,-7.06884 36.06909,-14.46728 53.77954,-22.42895c27.25671,-12.25318 53.37866,-26.74219 77.99878,-43.66113c19.68249,-13.52588 38.96191,-27.69971 57.7876,-42.39624c26.28869,-20.52222 49.76587,-44.20313 72.35083,-68.63306c13.72167,-14.84253 26.29419,-30.82227 38.54797,-46.92664c13.05713,-17.16003 25.7688,-34.65491 37.49231,-52.74194c20.80139,-32.09192 39.05188,-65.66223 54.86035,-100.52026c4.49597,-9.91321 8.88782,-19.87354 14.23047,-30.51575c3.23291,-1.5221 3.91968,-2.72595 1.81274,-4.58447c0.45166,-1.61914 0.90357,-3.23828 2.32447,-5.53443c1.65673,-2.14966 2.34448,-3.62207 3.03247,-5.09436c0.11084,-1.34741 0.22168,-2.69495 1.02246,-4.76965c3.06909,-1.55469 3.72412,-2.76892 1.56274,-4.61524z" fill="#E62626"/>
  <path id="svg_18" d="m2442.10059,1149.0896c-4.31397,4.09814 -8.99878,6.75305 -12.39917,10.5564c-12.13257,13.5708 -23.89038,27.47949 -35.67066,41.36145c-9.84765,11.60486 -19.42749,23.43799 -29.31347,35.00976c-9.68262,11.33374 -19.66895,22.4076 -29.39991,33.70044c-10.80151,12.53552 -21.43164,25.21887 -32.1997,37.78357c-9.26783,10.81433 -18.66822,21.51538 -27.9314,32.33374c-10.76221,12.56934 -21.37354,25.26782 -32.17114,37.8064c-9.94409,11.54724 -20.11109,22.90222 -30.06446,34.44153c-10.59204,12.27954 -21.01074,24.70837 -31.5747,37.0122c-9.70948,11.30884 -19.57178,22.48657 -29.25391,33.81873c-7.95703,9.31335 -16.0625,18.5293 -23.4668,28.27136c-3.20874,4.22192 -4.82031,9.65759 -7.91259,13.94348c-0.87525,-1.59399 -0.99512,-2.58947 -1.11475,-3.58484c0.04126,-5.2417 0.08252,-10.4834 0.78223,-17.15893c0.88281,-8.5492 1.10717,-15.66467 1.33129,-22.78003c-0.01196,-24.4646 -0.02392,-48.92908 0.08326,-75.23828c-0.70899,-8.02259 2.3208,-14.64197 -2.00562,-20.4198c-0.58667,-7.40284 -1.17309,-14.80554 -1.18335,-23.6128c1.08765,-5.42407 3.69824,-9.95849 -2.12451,-12.42602c-0.15674,-2.11597 -0.31323,-4.23194 -0.00879,-7.45313c-0.25513,-2.26818 -0.9707,-3.43115 -1.68652,-4.59423c-0.24512,-5.37098 -0.49048,-10.74183 -0.21436,-17.40479c2.01929,-4.21521 1.04077,-5.91626 -2.07886,-6.56042c-0.1062,-0.88013 -0.21264,-1.76038 0.12427,-3.61097c0.06519,-2.07898 -0.31299,-3.18737 -0.69091,-4.2959c-0.62525,-4.79138 -1.25049,-9.58288 -1.33887,-15.64599c1.28833,-5.84656 0.37573,-9.78101 -3.77295,-12.47009c-0.26245,-3.40003 -0.52466,-6.80017 -0.26514,-11.44739c2.07373,-4.24426 1.02002,-5.91846 -2.15332,-6.51648c-0.81958,-5.40759 -1.63916,-10.81506 -1.93115,-17.45544c2.26001,-4.48316 0.92822,-6.02906 -2.38672,-6.47193c-0.67432,-3.4978 -1.34839,-6.99573 -1.5022,-11.66699c2.0835,-4.35681 0.80054,-5.90967 -2.44018,-6.34107c-0.69849,-3.49536 -1.39722,-6.99072 -1.57569,-11.656c2.12842,-4.4491 0.74585,-5.95313 -2.54052,-6.32727c-0.65772,-2.85486 -1.31543,-5.7096 -1.45288,-9.70593c2.12085,-4.4419 0.70703,-5.92823 -2.5774,-6.28882c-0.65478,-2.85279 -1.30957,-5.70569 -1.47265,-9.66736c1.38745,-4.87488 -0.3628,-7.10779 -3.73365,-8.40198c-0.22461,-1.49328 -0.44897,-2.98657 -0.22436,-5.58179c-0.50171,-2.19323 -1.45288,-3.28454 -2.40381,-4.37597c-0.71509,-2.83826 -1.43018,-5.67664 -1.65869,-9.62427c1.4043,-4.98633 -0.39331,-7.22266 -3.92554,-8.41077c-0.14575,-0.88525 -0.29175,-1.77038 0.02881,-3.71276c1.18921,-4.8567 -0.50244,-7.14942 -4.04517,-8.28711c-0.14868,-0.88306 -0.2976,-1.76612 0.03516,-3.73731c-0.08325,-4.65808 0.88794,-9.01807 -4.22949,-10.24585c-0.13623,-0.86304 -0.27222,-1.72607 -0.44873,-3.24268c4.19458,-12.78552 12.83423,-21.73925 21.21142,-31.04663c10.39209,-11.54602 20.00293,-23.79211 30.07496,-35.63049c9.00927,-10.58935 18.21313,-21.01257 27.28271,-31.55109c11.65332,-13.54083 23.20459,-27.16992 34.89966,-40.67425c9.97095,-11.51361 20.1853,-22.81726 30.10473,-34.37451c9.90699,-11.54309 19.54737,-23.31488 29.37256,-34.92896c5.13257,-6.06714 10.43799,-11.98736 15.61768,-18.01501c11.64331,-13.54938 23.21191,-27.16345 34.89746,-40.67627c9.74585,-11.26959 19.68677,-22.37049 29.40991,-33.6593c10.79273,-12.53064 21.4187,-25.20502 32.15357,-37.78589c4.29736,-5.03638 8.58496,-10.09113 13.12841,-14.89984c0.9646,-1.02106 3.02515,-1.00721 5.32886,-1.49518c6.90161,15.99902 13.15894,31.98401 19.16821,48.06164c3.47632,9.30018 6.71778,18.69623 9.77369,28.14325c5.90356,18.24903 12.48217,36.33918 17.22729,54.89258c17.79565,69.58209 27.13526,140.31537 26.97852,212.21527c-0.03711,16.96363 -0.16553,33.92701 -0.46997,51.80701z" fill="#EB2E2E"/>
  <path id="svg_19" d="m1893.7063,294.92627c-5.07849,7.84796 -10.29822,15.50687 -16.29761,22.49646c-14.66492,17.08481 -29.86487,33.71033 -44.52588,50.79834c-17.88025,20.84036 -35.28698,42.08694 -53.16687,62.92764c-14.66052,17.08838 -29.8645,33.71033 -44.54931,50.77848c-13.80725,16.04803 -27.13025,32.51196 -40.89283,48.59918c-10.33325,12.07867 -21.13488,23.75549 -31.52563,35.78595c-9.94495,11.51434 -19.56275,23.31042 -29.44605,34.87884c-9.67785,11.32825 -19.54809,22.49213 -29.26306,33.78894c-11.00195,12.79297 -21.922,25.65638 -32.88415,38.48352c-4.73279,5.53821 -9.24158,11.29352 -14.28199,16.53705c-7.00488,7.28717 -8.46252,15.42896 -5.08813,25.54523c-1.60352,-0.70355 -3.99365,-1.94849 -4.69922,-3.82636c-9.91492,-26.38672 -20.25574,-52.64203 -29.13745,-79.37951c-7.30408,-21.9889 -13.34436,-44.44281 -18.91321,-66.94599c-3.32751,-13.44586 -5.38135,-27.31372 -6.7334,-41.1167c-2.00256,-20.44253 -4.36816,-41.03903 -3.7782,-61.48919c0.52161,-18.08374 1.99476,-36.27451 4.49695,-54.40137c2.83399,-20.53067 8.51014,-40.23328 13.70484,-60.0228c3.92517,-14.95361 11.20446,-29.06381 17.3811,-43.38107c10.01563,-23.21606 23.95862,-44.1983 37.93799,-65.87506c34.05383,-1.77268 67.89893,-0.64253 101.74243,2.35033c45.1322,3.99116 89.6189,11.49911 133.53296,22.52061c32.58582,8.17838 64.55994,18.31012 96.38672,30.94748z" fill="#FB4A4A"/>
  <path id="svg_20" d="m360.16367,1736.96289c1.71316,-4.31982 3.16375,-8.54516 5.85647,-11.71533c10.28586,-12.1095 21.12158,-23.75073 31.47104,-35.80798c13.99945,-16.30958 27.64877,-32.91944 41.62277,-49.25098c10.11557,-11.82214 20.59879,-23.32898 30.76389,-35.1095c10.36929,-12.01709 20.49914,-24.24072 30.82834,-36.29285c9.6925,-11.3092 19.54748,-22.47875 29.25976,-33.77111c10.99854,-12.78785 21.91034,-25.65027 32.87555,-38.46692c4.30359,-5.03028 8.50391,-10.16272 13.06055,-14.95471c1.46515,-1.5409 3.92029,-2.14051 5.96045,-3.19031c2.24286,5.40381 4.29553,10.34936 7.01703,15.47522c0.81048,4.90893 0.95202,9.63733 0.54187,15.73144c-1.26068,4.97522 -3.42566,9.08521 2.55145,10.39771c0.66174,4.78564 1.32349,9.57129 1.44885,15.63428c-1.9118,4.66552 -2.14203,7.56359 2.50116,8.37646c0.6839,4.13123 1.36786,8.26233 1.51282,13.64258c-1.92914,4.64111 -2.16492,7.54114 2.49011,8.35669c0.67999,3.48535 1.35999,6.9707 1.58039,11.5664c0.44934,2.22876 1.35821,3.34717 2.26715,4.46558c0.74859,4.77185 1.49725,9.54382 1.78698,15.46338c-1.75305,4.13171 0.52588,4.13074 2.34986,4.50989c0.69574,3.47729 1.39148,6.95459 1.63098,11.54211c0.48724,2.22595 1.43066,3.34155 2.37414,4.45716c2.01117,7.47814 4.02234,14.95617 5.5343,23.61291c-2.19634,4.46765 -0.79443,5.96875 2.50019,6.37781c5.7782,17.57946 10.90161,35.40832 17.48389,52.68139c10.59558,27.80432 21.92071,55.33899 33.3648,82.80957c14.17023,34.01429 32.55695,65.89466 50.99579,97.68494c9.94147,17.14014 21.14282,33.54944 31.96576,51.00757c-40.17804,-6.68567 -79.43097,-18.17139 -117.98505,-32.05713c-102.05139,-36.75513 -193.78384,-91.04639 -275.61129,-163.17627z" fill="#FA4848"/>
  <path id="svg_29" d="m1527.27686,238.12305c-0.22779,1.32214 -1.12269,2.53547 -2.63746,3.82403c-0.64013,-0.73605 -0.6604,-1.5473 -0.6853,-2.96679c0.8822,-0.72751 1.76904,-0.84678 3.32276,-0.85724z" fill="#FF6565"/>
  <path id="svg_30" d="m1005.0481,627.10834c40.07128,0.05279 73.57873,16.83636 106.36999,35.86712c66.8374,38.78998 133.74731,77.45459 200.61731,116.18824c68.31043,39.56805 136.60486,79.16388 204.9137,118.7348c56.49316,32.72619 112.99353,65.43994 169.50769,98.12976c2.5863,1.49603 5.33996,2.7027 9.07959,4.61639c2.82666,1.59564 4.58923,2.61902 6.35193,3.6424c6.25988,4.83337 12.96984,9.19244 18.67785,14.6076c9.3357,8.85669 18.93445,17.6897 26.79126,27.80017c17.48755,22.50367 23.44116,47.81189 14.72534,76.49463c-5.57934,9.39905 -10.56274,18.4447 -16.82116,26.49976c-13.88855,17.87512 -32.01966,30.92688 -51.3501,42.26013c-70.91553,41.57642 -141.92798,82.98731 -212.90247,124.46277c-31.32129,18.30322 -62.63879,36.61267 -94.5852,55.21716c-23.0011,13.25281 -45.40271,26.15992 -67.74097,39.17591c-22.62231,13.18127 -45.19165,26.45336 -67.76684,39.71545c-30.00452,17.62622 -60.00062,35.26697 -89.98365,52.92944c-17.70239,10.42823 -35.35913,20.93384 -53.07519,31.33875c-2.25195,1.32263 -4.73889,2.24499 -8.22217,4.18481c-26.24976,13.9491 -52.23267,24.35743 -81.05786,25.58521c-1.16059,-0.09082 -2.32111,-0.18176 -4.33435,-0.04346c-19.24982,0.93262 -36.6203,-2.22705 -52.0625,-13.03589c-17.79175,-12.45312 -27.74048,-30.24841 -33.88196,-50.39026c-6.15033,-20.17077 -8.26947,-40.95532 -8.26269,-62.03576c0.0625,-194.13306 0.03918,-388.26599 0.02691,-582.39899c-0.00073,-12.31915 -0.11566,-24.63837 -0.42651,-37.87695c-0.05005,-23.51722 0.19195,-46.11469 0.3352,-68.71277c0.12702,-20.03797 2.04145,-39.89813 8.3534,-58.9541c3.21081,-9.69336 7.37023,-19.34479 12.73944,-27.99848c14.38586,-23.18548 35.97961,-34.62774 63.98401,-36.00384z" fill="#FFFFFF"/>
  <path id="svg_31" d="m2121.01709,1481.91553c0.50024,6.80469 0.27588,13.92016 -0.57861,21.58984c-3.16651,-6.7832 -3.82325,-14.07935 0.57861,-21.58984z" fill="#EE3F3F"/>
  <path id="svg_32" d="m2119.29346,1386.55298c4.85205,5.17163 1.82226,11.79101 2.55273,18.90088c-1.28369,-0.72412 -3.36963,-2.32105 -3.48291,-4.04737c-0.30957,-4.71984 0.21216,-9.49438 0.93018,-14.85351z" fill="#EE3F3F"/>
  <path id="svg_33" d="m2120.00977,1536.01526c0.30468,3.27527 0.78613,6.54846 0.82666,9.82702c0.01562,1.30408 -0.94556,2.62024 -2.15284,3.38441c-1.29223,-2.08765 -1.89379,-3.62891 -2.4956,-5.17017c0.01391,-1.5177 0.02783,-3.0354 0.60058,-5.53992c1.44654,-1.49158 2.33374,-1.99646 3.2212,-2.50134z" fill="#EB2E2E"/>
  <path id="svg_34" d="m2116.34546,1350.71094c5.98852,1.66455 3.37793,6.19897 2.34424,10.72632c-1.18531,-2.96949 -1.84766,-6.44654 -2.34424,-10.72632z" fill="#EE3F3F"/>
  <path id="svg_35" d="m2120.00977,1535.18213c-0.88746,1.33801 -1.77466,1.84289 -3.10645,2.58325c0.29297,-4.85803 1.03027,-9.95141 2.24609,-15.63318c0.59815,0.40699 0.71802,1.40247 0.87403,3.1471c0.01953,3.5227 0.00268,6.29614 -0.01367,9.90283z" fill="#EE3F3F"/>
  <path id="svg_36" d="m2101.67993,1644.45337c3.552,3.68298 2.81983,6.94409 -2.17383,9.59399c0.13062,-2.9403 0.86402,-6.07153 2.17383,-9.59399z" fill="#EE3F3F"/>
  <path id="svg_37" d="m2106.67773,1278.59155c4.31519,1.96997 5.22779,5.90442 3.97486,10.92041c-1.71485,-3.10644 -2.92798,-6.65381 -3.97486,-10.92041z" fill="#EE3F3F"/>
  <path id="svg_38" d="m2105.69653,1622.48608c3.75855,4.22657 0.76245,7.69092 -2.24804,11.49536c0.16455,-3.53723 0.91528,-7.3048 2.24804,-11.49536z" fill="#EE3F3F"/>
  <path id="svg_39" d="m2089.67627,1696.45215c4.21582,3.91223 0.74927,6.51074 -2.35693,9.5415c0.20312,-2.91247 0.99462,-6.02929 2.35693,-9.5415z" fill="#EE3F3F"/>
  <path id="svg_40" d="m2066.33447,1112.651c5.17261,0.52673 4.20142,4.88672 4.29932,8.87219c-1.76294,-2.44665 -3.0586,-5.30896 -4.29932,-8.87219z" fill="#F13939"/>
  <path id="svg_41" d="m2085.63086,1712.40234c3.93188,3.44007 1.68823,5.61976 -2.28052,7.64356c0.17261,-2.31616 0.94092,-4.80237 2.28052,-7.64356z" fill="#EE3F3F"/>
  <path id="svg_42" d="m2081.63623,1726.40015c3.92603,3.4613 1.67383,5.63537 -2.31543,7.64343c0.18042,-2.3197 0.96094,-4.80579 2.31543,-7.64343z" fill="#EE3F3F"/>
  <path id="svg_43" d="m2114.00977,1584.00977c1.375,3.42346 4.2644,7.00146 -1.73389,9.77148c-0.66309,-2.69702 -0.58765,-5.41821 0.07397,-8.95459c0.94409,-0.81592 1.30201,-0.81641 1.65992,-0.81689z" fill="#EB2E2E"/>
  <path id="svg_44" d="m2115.55908,1554.58496c1.53736,0.56921 2.80005,1.7135 4.06275,2.85779c-1.22754,0.8479 -2.45533,1.6958 -4.34766,2.58459c-0.4397,-1.59509 -0.2146,-3.23108 0.28491,-5.44238z" fill="#EB2E2E"/>
  <path id="svg_45" d="m2082.64526,1166.57422c3.53833,0.64575 5.28858,2.87866 3.92749,7.01599c-1.67553,-1.875 -2.88525,-4.12134 -3.92749,-7.01599z" fill="#F13939"/>
  <path id="svg_46" d="m2074.48828,1138.59192c3.64429,0.52917 5.4419,2.7655 4.04761,7.01477c-1.70435,-1.87048 -2.93189,-4.11316 -4.04761,-7.01477z" fill="#F13939"/>
  <path id="svg_47" d="m2070.48242,1126.59497c3.64429,0.47583 5.33594,2.76855 4.16016,6.95142c-1.72217,-1.84095 -2.9917,-4.06531 -4.16016,-6.95142z" fill="#F13939"/>
  <path id="svg_48" d="m2114.01074,1583.21081c-0.35888,0.79944 -0.7168,0.79993 -1.61279,0.79725c-2.79102,-2.27356 -2.68359,-4.28955 0.7041,-6.20887c0.69898,1.40906 0.8042,3.01087 0.90869,5.41162z" fill="#EE3F3F"/>
  <path id="svg_49" d="m2115.67969,1544.38684c1.11011,1.21094 1.71167,2.7522 2.32177,4.95715c0.00831,0.66382 -0.00146,0.65601 -0.54296,0.66602c-0.9043,0.01526 -1.26661,0.02063 -1.62915,0.02612c-0.21949,-1.77295 -0.43897,-3.54602 -0.14966,-5.64929z" fill="#EE3F3F"/>
  <path id="svg_50" d="m2097.73291,1662.44995c2.79395,1.85559 2.84717,3.82495 -0.72754,5.55579c-0.34546,-1.63733 -0.09692,-3.40711 0.72754,-5.55579z" fill="#EE3F3F"/>
  <path id="svg_51" d="m2112.37012,1314.56897c3.27221,-0.02942 4.25073,1.67163 2.27978,4.98547c-1.12646,-1.17688 -1.77954,-2.74438 -2.27978,-4.98547z" fill="#EE3F3F"/>
  <path id="svg_52" d="m2087.99341,1184.67578c3.31006,-0.32007 4.72388,1.16626 2.63403,4.86987c-1.21264,-1.12744 -1.93628,-2.65832 -2.63403,-4.86987z" fill="#F13939"/>
  <path id="svg_53" d="m2092.02002,1200.66943c3.31567,-0.30542 4.69824,1.19861 2.6001,4.87964c-1.20313,-1.13196 -1.91602,-2.66613 -2.6001,-4.87964z" fill="#F13939"/>
  <path id="svg_54" d="m2096.09985,1218.65308c3.3064,-0.24854 4.58936,1.30432 2.54371,4.8872c-1.19117,-1.13611 -1.9004,-2.67163 -2.54371,-4.8872z" fill="#F13939"/>
  <path id="svg_55" d="m2104.30127,1260.58496c3.29785,-0.07837 4.35156,1.59583 2.31641,4.98328c-1.13575,-1.17542 -1.78833,-2.74109 -2.31641,-4.98328z" fill="#EE3F3F"/>
  <path id="svg_56" d="m2100.05542,1236.65784c3.36743,-0.23377 4.69922,1.31213 2.45435,4.953c-1.17701,-1.16504 -1.84205,-2.7207 -2.45435,-4.953z" fill="#F13939"/>
  <path id="svg_57" d="m2049.62061,1818.34424c2.62744,1.54529 1.94067,2.74914 -0.95948,3.63183c-0.23364,-1.06347 0.10279,-2.19104 0.95948,-3.63183z" fill="#EE3F3F"/>
  <path id="svg_58" d="m2054.927,1807.66016c-0.11694,1.21435 -0.80469,2.68676 -2.16431,4.26928c0.08301,-1.26379 0.83814,-2.63769 2.16431,-4.26928z" fill="#EE3F3F"/>
  <path id="svg_59" d="m2057.57056,1798.33618c2.67407,1.52747 2.01904,2.7417 -0.93604,3.62964c-0.24292,-1.06311 0.09033,-2.18701 0.93604,-3.62964z" fill="#EE3F3F"/>
  <path id="svg_60" d="m2065.62256,1776.34863c2.61279,1.50257 1.97754,2.72229 -0.90088,3.64478c-0.24854,-1.06079 0.06665,-2.19397 0.90088,-3.64478z" fill="#EE3F3F"/>
  <path id="svg_61" d="m2073.66064,1752.3584c2.55787,1.45984 1.97999,2.69433 -0.83642,3.6626c-0.26318,-1.05896 0.02466,-2.20215 0.83642,-3.6626z" fill="#EE3F3F"/>
  <path id="svg_62" d="m2077.61011,1740.34692c2.62402,1.46985 2.0166,2.69898 -0.84497,3.65699c-0.2649,-1.06031 0.03051,-2.1991 0.84497,-3.65699z" fill="#EE3F3F"/>
  <path id="svg_63" d="m2093.5249,1682.33667c2.65186,1.36658 2.2146,2.63831 -0.69458,3.68115c-0.30981,-1.05945 -0.06225,-2.2052 0.69458,-3.68115z" fill="#EE3F3F"/>
  <path id="svg_64" d="m2114.62646,1338.44202c0.90528,0.58166 1.62085,1.74463 1.91114,3.21618c-0.98365,-0.67273 -1.54199,-1.65381 -1.91114,-3.21618z" fill="#EE3F3F"/>
  <path id="svg_65" d="m2080.16528,1156.57581c0.97022,0.48364 1.92139,1.57495 2.44727,3.01037c-1.10547,-0.57153 -1.78613,-1.48706 -2.44727,-3.01037z" fill="#F13939"/>
  <path id="svg_66" d="m2111.52832,1306.30029c0.80566,0.79676 1.18384,1.90515 1.14453,3.31885c-0.80249,-0.79883 -1.1875,-1.90283 -1.14453,-3.31885z" fill="#EE3F3F"/>
  <path id="svg_67" d="m2107.79956,1606.38623c0.40357,0.97644 0.25122,2.25769 -0.36792,3.69519c-0.37402,-1.02588 -0.28101,-2.20825 0.36792,-3.69519z" fill="#EE3F3F"/>
  <path id="svg_68" d="m2109.71289,1598.37561c0.35498,0.97681 0.17529,2.27441 -0.50513,3.70215c-0.3435,-1.04041 -0.18676,-2.21094 0.50513,-3.70215z" fill="#EE3F3F"/>
  <path id="svg_69" d="m2113.69287,1570.28711c0.69263,0.90637 0.91016,2.0647 0.64746,3.48157c-0.69409,-0.90418 -0.90796,-2.0669 -0.64746,-3.48157z" fill="#EE3F3F"/>
  <path id="svg_70" d="m2115.83643,1550.5304c0.35546,-0.49976 0.71777,-0.50513 1.62402,-0.51551c0.34302,0.6449 -0.0332,1.16883 -1.02881,1.77735c-0.4436,0.21045 -0.58813,-0.76758 -0.59521,-1.26184z" fill="#EB2E2E"/>
  <path id="svg_71" d="m1018.41345,1565.36816c28.98889,-2.0371 54.9718,-12.44543 80.7843,-25.89233c1.97913,8.07031 3.53724,16.44092 4.54908,24.87707c2.05078,17.09925 3.19433,34.32886 5.83264,51.33082c3.55493,22.90795 7.10901,45.91052 12.60986,68.39636c6.06323,24.78467 14.3313,49.02991 21.63696,73.51074c0.68934,2.31018 1.36365,4.62488 2.04493,6.93738c-0.59851,0.41894 -1.19703,0.83777 -1.79566,1.25659c-3.86706,-2.88855 -8.19409,-5.32971 -11.51782,-8.7467c-11.35437,-11.67395 -23.31299,-22.94678 -33.26843,-35.75086c-15.05725,-19.36584 -29.29139,-39.45666 -42.65735,-60.03052c-16.71131,-25.72338 -29.88355,-53.29431 -37.38861,-83.24939c-0.94916,-3.78845 -0.69202,-7.87927 -0.8299,-12.63916z" fill="#FF7E7E"/>
  <path id="svg_72" d="m591.99793,1519.23218c-6.0022,-0.53711 -3.83722,-4.6471 -2.59473,-8.73462c1.22888,2.33435 1.92431,5.14673 2.59473,8.73462z" fill="#FF5353"/>
  <path id="svg_73" d="m599.95618,1565.28418c-4.68543,-0.08215 -4.44965,-2.98218 -2.5409,-6.8186c1.20295,1.73205 1.88709,3.90869 2.5409,6.8186z" fill="#FF5353"/>
  <path id="svg_74" d="m595.9602,1543.28418c-4.68054,-0.07874 -4.45031,-2.97681 -2.55957,-6.8103c1.20923,1.72851 1.90308,3.90234 2.55957,6.8103z" fill="#FF5353"/>
  <path id="svg_75" d="m619.96765,1647.33594c-3.3125,0.26782 -4.71441,-1.23328 -2.51642,-4.92175c1.17871,1.14855 1.85651,2.69677 2.51642,4.92175z" fill="#FF5353"/>
  <path id="svg_76" d="m611.90747,1617.42261c-0.93567,-0.51612 -1.87909,-1.63172 -2.36621,-3.08496c1.09039,0.60339 1.72443,1.54455 2.36621,3.08496z" fill="#FF5353"/>
  <path id="svg_77" d="m607.90149,1601.42468c-1.81531,0.219 -4.09424,0.21997 -2.33862,-3.09924c1.08429,0.61023 1.70709,1.55566 2.33862,3.09924z" fill="#FF5353"/>
  <path id="svg_78" d="m603.80017,1581.44836c-0.93579,-0.51721 -1.84466,-1.63562 -2.31128,-3.09033c1.07428,0.60547 1.70618,1.54737 2.31128,3.09033z" fill="#FF5353"/>
  <path id="svg_79" d="m1701.92041,1003.53406c-1.7948,-0.27039 -3.55737,-1.29377 -5.66431,-2.85681c-0.30871,-2.07441 -0.27295,-3.60913 -0.23205,-5.91321c5.05786,0.08435 5.50036,4.04584 5.89636,8.77002z" fill="#F64242"/>
  <path id="svg_80" d="m1590.10889,802.61169c1.19482,0.34626 2.44299,1.33014 3.68689,2.98505c-1.21412,-0.3352 -2.42395,-1.34137 -3.68689,-2.98505z" fill="#FB5454"/>
  <path id="svg_81" d="m1558.18335,736.57654c1.19116,0.36554 2.4032,1.37231 3.604,3.04529c-1.2019,-0.3573 -2.39258,-1.38074 -3.604,-3.04529z" fill="#FB5454"/>
  <path id="svg_82" d="m1566.23486,754.55438c1.18885,0.36273 2.38416,1.36713 3.5813,3.02851c-1.19043,-0.35767 -2.38269,-1.37226 -3.5813,-3.02851z" fill="#FB5454"/>
  <path id="svg_83" d="m1570.15967,762.58777c1.20044,0.33673 2.43176,1.31616 3.67651,2.95593c-1.20618,-0.33093 -2.4259,-1.32214 -3.67651,-2.95593z" fill="#FB5454"/>
  <path id="svg_84" d="m1578.12183,778.6051c1.19677,0.34302 2.44116,1.32508 3.68664,2.97522c-1.21216,-0.33337 -2.42566,-1.33472 -3.68664,-2.97522z" fill="#FB5454"/>
  <path id="svg_85" d="m1586.10229,794.61389c1.19471,0.35217 2.44373,1.34107 3.67896,3.00427c-1.21765,-0.33972 -2.42114,-1.35363 -3.67896,-3.00427z" fill="#FB5454"/>
  <path id="svg_86" d="m1594.11829,810.60681c1.19555,0.34455 2.44116,1.32709 3.68615,2.97858c-1.21252,-0.33429 -2.42419,-1.33746 -3.68615,-2.97858z" fill="#FB5454"/>
 </g>
</svg>